<svg width="321" height="574" viewBox="0 0 321 574" fill="none" xmlns="http://www.w3.org/2000/svg">
<path d="M70.866 28.59C68.5238 40.3737 64.9389 127.912 70.866 141.718C96.4063 155.093 113.534 159.49 152.84 159.49C192.147 159.49 240.583 141.718 240.583 141.718C249.362 116.32 242.59 43.5714 240.583 28.59L240.564 28.4534C238.567 13.5441 237.155 3 152.84 3C68.2689 3 73.2081 16.8063 70.866 28.59Z" fill="white" stroke="black" stroke-width="5" stroke-miterlimit="10"/>
<path d="M70.8659 545.41C68.5238 533.626 64.9389 446.088 70.8659 432.282C96.4062 418.907 113.534 414.51 152.84 414.51C192.147 414.51 240.583 432.282 240.583 432.282C249.362 457.68 242.59 530.429 240.583 545.41L240.564 545.547C238.567 560.456 237.155 571 152.84 571C68.2688 571 73.208 557.194 70.8659 545.41Z" fill="white" stroke="black" stroke-width="5" stroke-miterlimit="10"/>
<path d="M318 265.318C318 260.682 314.255 256.924 309.635 256.924C305.016 256.924 301.271 260.682 301.271 265.318V310.087C301.271 314.723 305.016 318.481 309.635 318.481C314.255 318.481 318 314.723 318 310.087V265.318Z" fill="#9ABDFF" stroke="black" stroke-width="5"/>
<path d="M241.284 107.23L67.3687 107.23C31.8188 107.23 3 136.15 3 171.825L3 405.277C3 440.951 31.8188 469.871 67.3687 469.871H241.284C276.834 469.871 305.652 440.951 305.652 405.277V171.825C305.652 136.15 276.834 107.23 241.284 107.23Z" fill="white" stroke="black" stroke-width="5" stroke-miterlimit="10"/>
<path d="M223.287 140.727H85.3648C56.6743 140.727 33.416 164.067 33.416 192.858L33.416 384.252C33.416 413.042 56.6743 436.383 85.3648 436.383H223.287C251.979 436.383 275.236 413.042 275.236 384.252V192.858C275.236 164.067 251.979 140.727 223.287 140.727Z" fill="white" stroke="black" stroke-width="3" stroke-miterlimit="10"/>
<path d="M104.074 345.759V382.133H95.6845V355.252L87.4193 357.675V351.28L103.302 345.759H104.074ZM145.252 363.222V364.696C145.252 367.477 144.861 369.975 144.081 372.19C143.318 374.388 142.231 376.271 140.82 377.836C139.409 379.385 137.742 380.576 135.816 381.409C133.891 382.225 131.767 382.633 129.443 382.633C127.103 382.633 124.962 382.225 123.02 381.409C121.095 380.576 119.419 379.385 117.991 377.836C116.58 376.271 115.485 374.388 114.705 372.19C113.942 369.975 113.56 367.477 113.56 364.696V363.222C113.56 360.44 113.942 357.942 114.705 355.727C115.485 353.512 116.572 351.63 117.967 350.08C119.377 348.515 121.045 347.324 122.97 346.509C124.912 345.676 127.053 345.259 129.394 345.259C131.717 345.259 133.841 345.676 135.767 346.509C137.708 347.324 139.384 348.515 140.795 350.08C142.206 351.63 143.301 353.512 144.081 355.727C144.861 357.942 145.252 360.44 145.252 363.222ZM136.389 364.696V363.171C136.389 361.372 136.231 359.79 135.916 358.425C135.617 357.043 135.169 355.885 134.572 354.952C133.974 354.019 133.235 353.32 132.356 352.854C131.493 352.371 130.505 352.129 129.394 352.129C128.231 352.129 127.219 352.371 126.356 352.854C125.493 353.32 124.771 354.019 124.19 354.952C123.609 355.885 123.169 357.043 122.871 358.425C122.589 359.79 122.448 361.372 122.448 363.171V364.696C122.448 366.478 122.589 368.06 122.871 369.442C123.169 370.807 123.609 371.965 124.19 372.915C124.787 373.864 125.518 374.58 126.381 375.063C127.26 375.546 128.281 375.787 129.443 375.787C130.555 375.787 131.542 375.546 132.406 375.063C133.268 374.58 133.99 373.864 134.572 372.915C135.169 371.965 135.617 370.807 135.916 369.442C136.231 368.06 136.389 366.478 136.389 364.696ZM148.937 378.185C148.937 376.986 149.369 375.987 150.231 375.188C151.094 374.372 152.206 373.964 153.568 373.964C154.945 373.964 156.057 374.372 156.903 375.188C157.766 375.987 158.198 376.986 158.198 378.185C158.198 379.385 157.766 380.393 156.903 381.209C156.057 382.008 154.945 382.408 153.568 382.408C152.206 382.408 151.094 382.008 150.231 381.209C149.369 380.393 148.937 379.385 148.937 378.185ZM148.937 358.25C148.937 357.051 149.369 356.051 150.231 355.252C151.094 354.436 152.206 354.028 153.568 354.028C154.945 354.028 156.057 354.436 156.903 355.252C157.766 356.051 158.198 357.051 158.198 358.25C158.198 359.449 157.766 360.456 156.903 361.273C156.057 362.072 154.945 362.472 153.568 362.472C152.206 362.472 151.094 362.072 150.231 361.273C149.369 360.456 148.937 359.449 148.937 358.25ZM181.128 345.759V382.133H172.737V355.252L164.472 357.675V351.28L180.356 345.759H181.128ZM222.304 363.222V364.696C222.304 367.477 221.915 369.975 221.135 372.19C220.371 374.388 219.284 376.271 217.873 377.836C216.463 379.385 214.794 380.576 212.87 381.409C210.944 382.225 208.82 382.633 206.497 382.633C204.156 382.633 202.015 382.225 200.073 381.409C198.148 380.576 196.472 379.385 195.045 377.836C193.634 376.271 192.539 374.388 191.759 372.19C190.995 369.975 190.613 367.477 190.613 364.696V363.222C190.613 360.44 190.995 357.942 191.759 355.727C192.539 353.512 193.625 351.63 195.019 350.08C196.43 348.515 198.098 347.324 200.024 346.509C201.965 345.676 204.107 345.259 206.446 345.259C208.77 345.259 210.894 345.676 212.82 346.509C214.762 347.324 216.438 348.515 217.849 350.08C219.259 351.63 220.354 353.512 221.135 355.727C221.915 357.942 222.304 360.44 222.304 363.222ZM213.442 364.696V363.171C213.442 361.372 213.284 359.79 212.969 358.425C212.671 357.043 212.222 355.885 211.625 354.952C211.027 354.019 210.289 353.32 209.409 352.854C208.546 352.371 207.559 352.129 206.446 352.129C205.285 352.129 204.272 352.371 203.41 352.854C202.546 353.32 201.824 354.019 201.244 354.952C200.663 355.885 200.223 357.043 199.924 358.425C199.641 359.79 199.5 361.372 199.5 363.171V364.696C199.5 366.478 199.641 368.06 199.924 369.442C200.223 370.807 200.663 371.965 201.244 372.915C201.841 373.864 202.571 374.58 203.434 375.063C204.314 375.546 205.334 375.787 206.497 375.787C207.608 375.787 208.596 375.546 209.459 375.063C210.322 374.58 211.044 373.864 211.625 372.915C212.222 371.965 212.671 370.807 212.969 369.442C213.284 368.06 213.442 366.478 213.442 364.696Z" fill="black"/>
<path d="M106.293 407.487V409.314H100.59V407.487H106.293ZM101.345 397.947V409.314H99.0112V397.947H101.345ZM111.487 407.292V400.867H113.727V409.314H111.619L111.487 407.292ZM111.735 405.559L112.396 405.543C112.396 406.105 112.332 406.628 112.202 407.112C112.072 407.591 111.878 408.008 111.619 408.362C111.359 408.71 111.033 408.984 110.638 409.181C110.244 409.374 109.78 409.47 109.246 409.47C108.836 409.47 108.458 409.413 108.11 409.298C107.768 409.179 107.472 408.994 107.223 408.744C106.979 408.489 106.787 408.163 106.647 407.768C106.512 407.367 106.445 406.886 106.445 406.324V400.867H108.686V406.339C108.686 406.589 108.714 406.8 108.771 406.971C108.834 407.143 108.919 407.284 109.028 407.394C109.137 407.502 109.264 407.581 109.409 407.628C109.56 407.674 109.725 407.698 109.907 407.698C110.369 407.698 110.731 407.604 110.996 407.417C111.266 407.23 111.456 406.975 111.564 406.652C111.679 406.324 111.735 405.959 111.735 405.559ZM116.836 402.67V409.314H114.595V400.867H116.696L116.836 402.67ZM116.509 404.794H115.902C115.902 404.169 115.983 403.607 116.143 403.107C116.304 402.603 116.529 402.173 116.82 401.819C117.111 401.46 117.456 401.187 117.855 401C118.26 400.807 118.711 400.71 119.208 400.71C119.603 400.71 119.963 400.768 120.29 400.882C120.617 400.996 120.897 401.179 121.13 401.429C121.369 401.678 121.55 402.009 121.675 402.42C121.805 402.831 121.869 403.334 121.869 403.927V409.314H119.613V403.919C119.613 403.544 119.561 403.253 119.458 403.045C119.353 402.837 119.201 402.69 118.998 402.607C118.801 402.519 118.558 402.475 118.267 402.475C117.967 402.475 117.704 402.535 117.481 402.654C117.264 402.774 117.082 402.941 116.936 403.154C116.797 403.362 116.69 403.607 116.618 403.888C116.545 404.169 116.509 404.471 116.509 404.794ZM122.885 408.229C122.885 407.896 123 407.617 123.228 407.394C123.461 407.17 123.769 407.058 124.153 407.058C124.537 407.058 124.843 407.17 125.071 407.394C125.304 407.617 125.422 407.896 125.422 408.229C125.422 408.562 125.304 408.841 125.071 409.064C124.843 409.287 124.537 409.399 124.153 409.399C123.769 409.399 123.461 409.287 123.228 409.064C123 408.841 122.885 408.562 122.885 408.229ZM137.427 407.557V409.314H129.679V407.815L133.343 403.872C133.711 403.461 134.001 403.1 134.214 402.787C134.427 402.47 134.58 402.186 134.673 401.936C134.772 401.681 134.821 401.439 134.821 401.21C134.821 400.867 134.764 400.573 134.65 400.328C134.536 400.078 134.367 399.885 134.144 399.75C133.926 399.615 133.656 399.547 133.335 399.547C132.993 399.547 132.697 399.63 132.448 399.797C132.204 399.964 132.018 400.195 131.888 400.492C131.764 400.789 131.701 401.124 131.701 401.499H129.453C129.453 400.822 129.613 400.203 129.935 399.641C130.257 399.074 130.71 398.624 131.297 398.29C131.883 397.952 132.578 397.783 133.382 397.783C134.175 397.783 134.844 397.913 135.389 398.173C135.939 398.428 136.354 398.798 136.633 399.282C136.919 399.761 137.061 400.333 137.061 401C137.061 401.374 137.002 401.741 136.883 402.1C136.763 402.454 136.592 402.808 136.369 403.162C136.151 403.511 135.887 403.865 135.576 404.224C135.264 404.583 134.919 404.955 134.541 405.34L132.572 407.557H137.427ZM145.966 405.066V406.832H137.805L137.696 405.465L142.419 397.947H144.2L142.27 401.187L139.921 405.066H145.966ZM144.683 397.947V409.314H142.442V397.947H144.683ZM149.29 405.176V405.012C149.29 404.392 149.377 403.822 149.554 403.302C149.73 402.777 149.987 402.321 150.325 401.936C150.662 401.551 151.077 401.251 151.569 401.038C152.062 400.82 152.627 400.71 153.265 400.71C153.903 400.71 154.471 400.82 154.969 401.038C155.467 401.251 155.884 401.551 156.221 401.936C156.564 402.321 156.823 402.777 157 403.302C157.176 403.822 157.264 404.392 157.264 405.012V405.176C157.264 405.79 157.176 406.36 157 406.886C156.823 407.406 156.564 407.862 156.221 408.252C155.884 408.637 155.469 408.936 154.976 409.15C154.484 409.363 153.918 409.47 153.281 409.47C152.643 409.47 152.075 409.363 151.577 409.15C151.084 408.936 150.666 408.637 150.325 408.252C149.987 407.862 149.73 407.406 149.554 406.886C149.377 406.36 149.29 405.79 149.29 405.176ZM151.53 405.012V405.176C151.53 405.53 151.561 405.86 151.623 406.167C151.686 406.475 151.784 406.745 151.919 406.979C152.059 407.209 152.24 407.388 152.464 407.518C152.687 407.649 152.959 407.713 153.281 407.713C153.592 407.713 153.858 407.649 154.082 407.518C154.305 407.388 154.484 407.209 154.618 406.979C154.754 406.745 154.852 406.475 154.914 406.167C154.982 405.86 155.015 405.53 155.015 405.176V405.012C155.015 404.668 154.982 404.346 154.914 404.044C154.852 403.737 154.751 403.467 154.61 403.232C154.476 402.993 154.297 402.806 154.074 402.67C153.851 402.535 153.581 402.467 153.265 402.467C152.949 402.467 152.679 402.535 152.456 402.67C152.238 402.806 152.059 402.993 151.919 403.232C151.784 403.467 151.686 403.737 151.623 404.044C151.561 404.346 151.53 404.668 151.53 405.012ZM161.321 407.713C161.596 407.713 161.84 407.661 162.053 407.557C162.265 407.448 162.432 407.297 162.551 407.104C162.676 406.907 162.74 406.675 162.745 406.409H164.854C164.848 407.003 164.69 407.531 164.379 407.995C164.068 408.453 163.651 408.814 163.127 409.08C162.602 409.34 162.017 409.47 161.368 409.47C160.715 409.47 160.144 409.361 159.656 409.142C159.174 408.924 158.772 408.621 158.451 408.236C158.129 407.846 157.888 407.394 157.728 406.878C157.567 406.357 157.486 405.8 157.486 405.207V404.981C157.486 404.382 157.567 403.826 157.728 403.31C157.888 402.79 158.129 402.337 158.451 401.952C158.772 401.562 159.174 401.257 159.656 401.038C160.139 400.82 160.705 400.71 161.352 400.71C162.042 400.71 162.647 400.843 163.166 401.108C163.689 401.374 164.099 401.754 164.395 402.248C164.695 402.738 164.848 403.318 164.854 403.99H162.745C162.74 403.708 162.68 403.453 162.567 403.224C162.457 402.995 162.296 402.813 162.084 402.678C161.877 402.537 161.62 402.467 161.314 402.467C160.987 402.467 160.72 402.537 160.513 402.678C160.305 402.813 160.144 403.001 160.03 403.24C159.916 403.474 159.836 403.743 159.789 404.044C159.747 404.341 159.727 404.653 159.727 404.981V405.207C159.727 405.535 159.747 405.85 159.789 406.152C159.831 406.454 159.908 406.722 160.022 406.956C160.142 407.191 160.305 407.375 160.513 407.51C160.72 407.645 160.99 407.713 161.321 407.713ZM169.48 400.867V402.459H164.578V400.867H169.48ZM165.792 398.782H168.032V406.768C168.032 407.013 168.063 407.201 168.126 407.331C168.193 407.461 168.292 407.552 168.421 407.604C168.551 407.651 168.714 407.674 168.912 407.674C169.051 407.674 169.176 407.669 169.285 407.659C169.399 407.643 169.495 407.628 169.573 407.612L169.581 409.267C169.389 409.33 169.181 409.379 168.958 409.415C168.735 409.452 168.489 409.47 168.22 409.47C167.726 409.47 167.296 409.389 166.927 409.228C166.565 409.061 166.284 408.796 166.088 408.431C165.89 408.067 165.792 407.589 165.792 406.995V398.782ZM170.068 408.229C170.068 407.896 170.182 407.617 170.41 407.394C170.644 407.17 170.952 407.058 171.336 407.058C171.719 407.058 172.026 407.17 172.254 407.394C172.487 407.617 172.603 407.896 172.603 408.229C172.603 408.562 172.487 408.841 172.254 409.064C172.026 409.287 171.719 409.399 171.336 409.399C170.952 409.399 170.644 409.287 170.41 409.064C170.182 408.841 170.068 408.562 170.068 408.229ZM184.228 408.51V409.314H177.141V408.588L180.852 404.365C181.313 403.838 181.682 403.378 181.957 402.982C182.232 402.582 182.428 402.217 182.548 401.889C182.672 401.556 182.734 401.234 182.734 400.921C182.734 400.463 182.644 400.06 182.462 399.711C182.286 399.362 182.021 399.089 181.668 398.892C181.316 398.693 180.881 398.595 180.362 398.595C179.843 398.595 179.392 398.707 179.008 398.931C178.624 399.155 178.329 399.466 178.121 399.868C177.919 400.263 177.817 400.713 177.817 401.218H176.892C176.892 400.594 177.03 400.021 177.304 399.501C177.584 398.98 177.984 398.566 178.503 398.259C179.021 397.947 179.641 397.791 180.362 397.791C181.046 397.791 181.635 397.913 182.128 398.158C182.62 398.397 182.999 398.743 183.263 399.196C183.533 399.649 183.668 400.195 183.668 400.836C183.668 401.179 183.606 401.525 183.482 401.873C183.362 402.223 183.196 402.571 182.984 402.92C182.776 403.264 182.538 403.604 182.268 403.942C182.003 404.281 181.726 404.614 181.435 404.942L178.277 408.51H184.228ZM192.005 402.654V404.567C192.005 405.4 191.927 406.126 191.771 406.745C191.616 407.359 191.387 407.869 191.087 408.275C190.792 408.676 190.428 408.976 189.997 409.173C189.573 409.371 189.085 409.47 188.535 409.47C188.1 409.47 187.7 409.407 187.337 409.283C186.974 409.158 186.65 408.968 186.365 408.713C186.084 408.453 185.846 408.127 185.648 407.736C185.452 407.346 185.301 406.888 185.198 406.363C185.094 405.832 185.042 405.233 185.042 404.567V402.654C185.042 401.817 185.119 401.093 185.276 400.484C185.437 399.875 185.664 399.37 185.96 398.97C186.261 398.569 186.627 398.272 187.057 398.079C187.487 397.882 187.975 397.783 188.52 397.783C188.955 397.783 189.354 397.848 189.718 397.978C190.086 398.103 190.41 398.29 190.69 398.54C190.976 398.79 191.214 399.11 191.406 399.501C191.603 399.885 191.751 400.341 191.85 400.867C191.953 401.392 192.005 401.989 192.005 402.654ZM191.079 404.676V402.537C191.079 402.022 191.043 401.554 190.97 401.132C190.902 400.71 190.802 400.341 190.666 400.024C190.532 399.706 190.361 399.441 190.153 399.227C189.951 399.014 189.712 398.855 189.437 398.751C189.168 398.641 188.862 398.587 188.52 398.587C188.1 398.587 187.728 398.672 187.407 398.844C187.09 399.011 186.826 399.261 186.613 399.594C186.4 399.922 186.24 400.333 186.131 400.828C186.028 401.322 185.976 401.892 185.976 402.537V404.676C185.976 405.186 186.009 405.652 186.077 406.074C186.144 406.49 186.248 406.86 186.388 407.182C186.528 407.505 186.699 407.778 186.902 408.002C187.109 408.221 187.348 408.387 187.617 408.502C187.892 408.611 188.198 408.665 188.535 408.665C188.966 408.665 189.339 408.58 189.656 408.408C189.972 408.231 190.236 407.974 190.449 407.635C190.662 407.292 190.819 406.873 190.924 406.378C191.027 405.879 191.079 405.311 191.079 404.676ZM200.311 408.51V409.314H193.223V408.588L196.934 404.365C197.396 403.838 197.764 403.378 198.039 402.982C198.313 402.582 198.511 402.217 198.63 401.889C198.755 401.556 198.817 401.234 198.817 400.921C198.817 400.463 198.726 400.06 198.544 399.711C198.368 399.362 198.104 399.089 197.751 398.892C197.398 398.693 196.962 398.595 196.444 398.595C195.925 398.595 195.474 398.707 195.09 398.931C194.706 399.155 194.411 399.466 194.204 399.868C194.001 400.263 193.9 400.713 193.9 401.218H192.974C192.974 400.594 193.111 400.021 193.386 399.501C193.667 398.98 194.066 398.566 194.584 398.259C195.103 397.947 195.723 397.791 196.444 397.791C197.129 397.791 197.718 397.913 198.21 398.158C198.703 398.397 199.081 398.743 199.346 399.196C199.615 399.649 199.751 400.195 199.751 400.836C199.751 401.179 199.688 401.525 199.563 401.873C199.444 402.223 199.278 402.571 199.065 402.92C198.858 403.264 198.619 403.604 198.35 403.942C198.086 404.281 197.808 404.614 197.518 404.942L194.359 408.51H200.311ZM208.351 408.51V409.314H201.264V408.588L204.975 404.365C205.437 403.838 205.805 403.378 206.08 402.982C206.355 402.582 206.552 402.217 206.671 401.889C206.795 401.556 206.857 401.234 206.857 400.921C206.857 400.463 206.767 400.06 206.586 399.711C206.409 399.362 206.144 399.089 205.792 398.892C205.439 398.693 205.004 398.595 204.485 398.595C203.966 398.595 203.516 398.707 203.132 398.931C202.748 399.155 202.452 399.466 202.244 399.868C202.043 400.263 201.941 400.713 201.941 401.218H201.015C201.015 400.594 201.153 400.021 201.428 399.501C201.708 398.98 202.107 398.566 202.626 398.259C203.144 397.947 203.764 397.791 204.485 397.791C205.169 397.791 205.758 397.913 206.251 398.158C206.744 398.397 207.123 398.743 207.387 399.196C207.656 399.649 207.791 400.195 207.791 400.836C207.791 401.179 207.729 401.525 207.605 401.873C207.485 402.223 207.32 402.571 207.107 402.92C206.9 403.264 206.661 403.604 206.391 403.942C206.127 404.281 205.849 404.614 205.559 404.942L202.4 408.51H208.351Z" fill="black"/>
<path d="M161.333 242.232L193.198 203.859" stroke="black" stroke-width="5" stroke-miterlimit="10" stroke-linecap="round"/>
<path d="M126.28 226.643L147.391 242.631" stroke="black" stroke-width="5" stroke-miterlimit="10" stroke-linecap="round"/>
<path d="M154.561 325.373C198.338 325.373 233.827 289.76 233.827 245.829C233.827 201.898 198.338 166.285 154.561 166.285C110.784 166.285 75.2952 201.898 75.2952 245.829C75.2952 289.76 110.784 325.373 154.561 325.373Z" stroke="black" stroke-width="5"/>
<path d="M154.561 249.826C155.661 249.826 156.553 248.931 156.553 247.828C156.553 246.724 155.661 245.829 154.561 245.829C153.461 245.829 152.57 246.724 152.57 247.828C152.57 248.931 153.461 249.826 154.561 249.826Z" fill="black" stroke="black" stroke-width="5"/>
<path d="M133.188 117.744V129.111H132.238V117.744H133.188ZM137.07 117.744V118.571H128.364V117.744H137.07ZM139.412 120.664V129.111H138.486V120.664H139.412ZM138.322 118.22C138.322 118.044 138.377 117.895 138.486 117.775C138.6 117.65 138.756 117.588 138.953 117.588C139.15 117.588 139.305 117.65 139.419 117.775C139.539 117.895 139.599 118.044 139.599 118.22C139.599 118.392 139.539 118.54 139.419 118.666C139.305 118.785 139.15 118.845 138.953 118.845C138.756 118.845 138.6 118.785 138.486 118.666C138.377 118.54 138.322 118.392 138.322 118.22ZM142.812 117.744V129.111H141.855V117.744H142.812ZM149.814 117.744L144.928 122.952L142.47 125.379L142.377 124.31L144.352 122.249L148.616 117.744H149.814ZM149.021 129.111L144.251 123.271L144.827 122.499L150.18 129.111H149.021ZM151.44 123.514C151.44 123.331 151.497 123.178 151.611 123.053C151.731 122.923 151.891 122.858 152.093 122.858C152.296 122.858 152.456 122.92 152.576 123.045C152.695 123.17 152.754 123.326 152.754 123.514C152.754 123.69 152.695 123.841 152.576 123.966C152.456 124.086 152.296 124.146 152.093 124.146C151.891 124.146 151.731 124.086 151.611 123.966C151.497 123.841 151.44 123.69 151.44 123.514ZM159.002 117.744V129.111H158.053V117.744H159.002ZM162.884 117.744V118.571H154.179V117.744H162.884ZM168.424 127.596V123.24C168.424 122.84 168.341 122.493 168.175 122.202C168.008 121.911 167.765 121.687 167.444 121.531C167.122 121.374 166.725 121.297 166.253 121.297C165.818 121.297 165.428 121.374 165.086 121.531C164.749 121.681 164.482 121.888 164.285 122.147C164.093 122.402 163.997 122.686 163.997 122.999L163.064 122.991C163.064 122.673 163.141 122.366 163.297 122.069C163.452 121.772 163.673 121.507 163.958 121.273C164.244 121.039 164.583 120.854 164.977 120.719C165.376 120.578 165.815 120.508 166.292 120.508C166.894 120.508 167.423 120.609 167.879 120.812C168.341 121.015 168.701 121.32 168.96 121.726C169.22 122.132 169.349 122.642 169.349 123.256V127.339C169.349 127.631 169.37 127.932 169.411 128.245C169.458 128.557 169.523 128.815 169.607 129.018V129.111H168.618C168.556 128.924 168.506 128.69 168.471 128.409C168.439 128.122 168.424 127.851 168.424 127.596ZM168.642 124.193L168.657 124.911H166.829C166.351 124.911 165.924 124.955 165.545 125.044C165.172 125.127 164.855 125.252 164.596 125.419C164.337 125.58 164.137 125.775 163.997 126.004C163.862 126.233 163.795 126.493 163.795 126.785C163.795 127.086 163.87 127.362 164.02 127.612C164.176 127.862 164.394 128.062 164.674 128.213C164.959 128.359 165.296 128.432 165.685 128.432C166.204 128.432 166.661 128.336 167.054 128.143C167.454 127.95 167.783 127.698 168.043 127.386C168.302 127.073 168.475 126.733 168.564 126.363L168.968 126.902C168.901 127.162 168.776 127.43 168.595 127.706C168.419 127.977 168.188 128.232 167.903 128.471C167.617 128.705 167.28 128.898 166.891 129.049C166.508 129.194 166.072 129.267 165.584 129.267C165.035 129.267 164.554 129.163 164.145 128.955C163.74 128.747 163.424 128.463 163.196 128.104C162.973 127.74 162.861 127.328 162.861 126.87C162.861 126.454 162.949 126.082 163.126 125.754C163.302 125.421 163.556 125.14 163.888 124.911C164.225 124.677 164.63 124.5 165.102 124.38C165.579 124.255 166.113 124.193 166.704 124.193H168.642ZM172.703 117.744V129.111H171.746V117.744H172.703ZM179.705 117.744L174.819 122.952L172.361 125.379L172.267 124.31L174.243 122.249L178.507 117.744H179.705ZM178.911 129.111L174.142 123.271L174.718 122.499L180.07 129.111H178.911Z" fill="black"/>
</svg>
